#!OML:ASF X:\für Bonn\!DataBase\2005_08_12_Daniel\c3d\Daniel.ASF
:FULLY-SPECIFIED
:DEGREES
100
root 0.886197 8.05969 -0.834324 85.422 -87.8377 -111.6
lowerback 57.838 -4.25808 6.75263
upperback 2.61233 -2.87628 -2.8888
thorax -19.2617 -2.16212 -4.67859
lowerneck 7.67407 1.5365 -2.34342
upperneck -4.44281 1.75165 -0.801994
head -2.76835 0.939351 0.0657101
rclavicle 4.37326e-015 2.26615e-014
rhumerus 67.9232 2.84933 -91.2754
rradius 8.91539
rwrist 52.8143
rhand -17.9223 10.1696
rfingers 7.12502
rthumb 8.34534 -19.6456
lclavicle 4.37326e-015 2.26615e-014
lhumerus 65.5317 -0.407111 86.8971
lradius 12.2829
lwrist -62.3668
lhand -18.4082 -2.92449
lfingers 7.12502
lthumb 7.87636 26.9088
rfemur 4.19442 -67.6667 -89.2893
rtibia 144.042
rfoot -17.3641 66.4846
rtoes -3.74399
lfemur -33.8231 67.971 52.6286
ltibia 143.071
lfoot -22.4962 -60.4622
ltoes 3.78249
101
root 0.896387 8.2413 -0.836532 85.2986 -87.9007 -111.024
lowerback 57.4502 -4.19795 6.64262
upperback 2.57692 -2.87657 -2.88333
thorax -19.2794 -2.14915 -4.63303
lowerneck 7.6505 1.53084 -2.39271
upperneck -4.39657 1.73992 -0.803237
head -2.7487 0.933811 0.0748319
rclavicle 4.87022e-015 -9.14409e-015
rhumerus 67.8504 2.9449 -91.4351
rradius 9.02767
rwrist 53.2505
rhand -17.8437 9.89578
rfingers 7.12502
rthumb 8.42115 -19.9163
lclavicle 4.87022e-015 -9.14409e-015
lhumerus 65.7212 -0.306202 87.3646
lradius 12.2202
lwrist -62.9678
lhand -18.1318 -2.79816
lfingers 7.12502
lthumb 8.14313 27.0249
rfemur -3.29312 -67.9113 -79.1337
rtibia 142.648
rfoot -15.0239 64.4556
rtoes -3.76836
lfemur -38.5196 65.9959 45.4733
ltibia 141.629
lfoot -21.346 -58.8223
ltoes 4.05717
102
root 0.904474 8.42658 -0.838739 84.7604 -87.9403 -110.034
lowerback 57.0313 -4.15031 6.5585
upperback 2.55058 -2.87344 -2.86421
thorax -19.2789 -2.13593 -4.58515
lowerneck 7.68478 1.52687 -2.45413
upperneck -4.40209 1.72599 -0.815145
head -2.75753 0.928405 0.0820304
rclavicle 1.98785e-016 0
rhumerus 67.8242 3.04272 -91.5766
rradius 9.11305
rwrist 53.7169
rhand -17.8603 9.60644
rfingers 7.12502
rthumb 8.40519 -20.2063
lclavicle 1.98785e-016 0
lhumerus 65.9293 -0.210042 87.7982
lradius 12.1789
lwrist -63.6056
lhand -17.83 -2.71561
lfingers 7.12502
lthumb 8.43442 27.096
rfemur -11.1251 -67.5068 -68.6153
rtibia 141.197
rfoot -12.8775 62.3472
rtoes -3.75274
lfemur -42.2503 63.7821 39.3473
ltibia 140.162
lfoot -20.5633 -57.1169
ltoes 4.18826
103
root 0.910602 8.61378 -0.841457 84.303 -87.9796 -109.132
lowerback 56.6105 -4.09964 6.46288
upperback 2.5241 -2.87393 -2.84649
thorax -19.277 -2.12346 -4.53171
lowerneck 7.66075 1.52682 -2.52245
upperneck -4.37698 1.72176 -0.784071
head -2.74561 0.926057 0.104385
rclavicle -4.77083e-015 -1.55052e-014
rhumerus 67.8512 3.14784 -91.7296
rradius 9.17441
rwrist 54.1478
rhand -17.916 9.38476
rfingers 7.12502
rthumb 8.35143 -20.4301
lclavicle -4.77083e-015 -1.55052e-014
lhumerus 66.1398 -0.230486 87.8503
lradius 12.1738
lwrist -63.8853
lhand -17.6152 -2.52946
lfingers 7.12502
lthumb 8.64166 27.2737
rfemur -18.6603 -66.4544 -58.4689
rtibia 139.734
rfoot -11.1414 60.1448
rtoes -3.7143
lfemur -45.0605 61.4376 34.1837
ltibia 138.649
lfoot -19.5938 -55.4613
ltoes 4.61698
104
root 0.914256 8.80404 -0.843399 83.8202 -87.9967 -108.202
lowerback 56.1729 -4.0684 6.40838
upperback 2.50156 -2.8745 -2.83803
thorax -19.2666 -2.11372 -4.50791
lowerneck 7.5381 1.51594 -2.50709
upperneck -4.30218 1.71121 -0.822331
head -2.69645 0.920712 0.09117
rclavicle -4.67144e-015 -1.86858e-014
rhumerus 67.8593 3.25747 -91.8958
rradius 9.28247
rwrist 54.4586
rhand -17.9826 9.13593
rfingers 7.12502
rthumb 8.2871 -20.6815
lclavicle -4.67144e-015 -1.86858e-014
lhumerus 66.3746 -0.260454 87.8796
lradius 12.1514
lwrist -64.1795
lhand -17.449 -2.33825
lfingers 7.12502
lthumb 8.80209 27.4582
rfemur -25.5265 -64.781 -48.987
rtibia 138.216
rfoot -9.67901 57.7992
rtoes -3.79985
lfemur -47.1504 59.0263 29.8274
ltibia 137.121
lfoot -18.8507 -53.7768
ltoes 4.9611
105
root 0.916053 8.99438 -0.846641 83.0635 -88.0276 -107.01
lowerback 55.7427 -4.02739 6.33626
upperback 2.46286 -2.86936 -2.82067
thorax -19.2741 -2.10053 -4.46874
lowerneck 7.36331 1.51104 -2.53188
upperneck -4.16547 1.71061 -0.805412
head -2.61791 0.918326 0.102833
rclavicle -7.45443e-015 0
rhumerus 67.8653 3.35808 -92.0449
rradius 9.3236
rwrist 54.6177
rhand -18.0966 8.91025
rfingers 7.12502
rthumb 8.17715 -20.9115
lclavicle -7.45443e-015 0
lhumerus 66.5846 -0.195657 88.2208
lradius 12.1052
lwrist -64.753
lhand -17.3545 -2.25103
lfingers 7.12502
lthumb 8.89324 27.5416
rfemur -31.0003 -62.6993 -41.0323
rtibia 136.703
rfoot -8.61855 55.5255
rtoes -3.80961
lfemur -48.6399 56.6092 26.0937
ltibia 135.565
lfoot -18.3234 -52.11
ltoes 5.30416
106
root 0.915679 9.18545 -0.849648 82.6995 -88.0347 -106.222
lowerback 55.2679 -3.9867 6.28468
upperback 2.45443 -2.85691 -2.80276
thorax -19.2349 -2.08546 -4.44278
lowerneck 7.13342 1.50772 -2.53058
upperneck -4.00255 1.71646 -0.796723
head -2.52023 0.918604 0.107527
rclavicle -4.87022e-015 -9.93923e-015
rhumerus 67.9837 3.42733 -92.1835
rradius 9.17363
rwrist 54.6875
rhand -18.2362 8.80682
rfingers 7.12502
rthumb 8.04239 -21.0202
lclavicle -4.87022e-015 -9.93923e-015
lhumerus 66.7612 -0.107255 88.6623
lradius 12.0851
lwrist -65.3689
lhand -17.3731 -2.10931
lfingers 7.12502
lthumb 8.87528 27.684
rfemur -35.3607 -60.2976 -34.2351
rtibia 135.168
rfoot -7.86812 53.2454
rtoes -3.81319
lfemur -49.6156 54.2797 22.9614
ltibia 134.002
lfoot -18.1814 -50.4516
ltoes 5.55837
107
root 0.915226 9.37551 -0.852639 81.8017 -88.0347 -104.891
lowerback 54.7323 -3.965 6.25373
upperback 2.45268 -2.86038 -2.80049
thorax -19.1809 -2.07757 -4.43738
lowerneck 6.99689 1.50857 -2.54367
upperneck -3.89144 1.72483 -0.753676
head -2.45826 0.92011 0.12464
rclavicle -6.06293e-015 1.43125e-014
rhumerus 68.1022 3.49275 -92.3519
rradius 8.94117
rwrist 54.6987
rhand -18.3684 8.71589
rfingers 7.12502
rthumb 7.91477 -21.1159
lclavicle -6.06293e-015 1.43125e-014
lhumerus 66.8799 0.042739 89.263
lradius 12.086
lwrist -66.1232
lhand -17.4781 -2.04644
lfingers 7.12502
lthumb 8.77402 27.7512
rfemur -38.6844 -57.7517 -28.5548
rtibia 133.62
rfoot -7.33568 51.0125
rtoes -3.79013
lfemur -50.3541 52.0422 20.1596
ltibia 132.448
lfoot -18.3382 -48.7525
ltoes 5.52701
108
root 0.913386 9.56369 -0.85545 81.3034 -88.0414 -103.988
lowerback 54.1521 -3.91987 6.20579
upperback 2.48639 -2.84804 -2.7823
thorax -19.0702 -2.06163 -4.41475
lowerneck 6.92827 1.5191 -2.6027
upperneck -3.8441 1.74043 -0.681654
head -2.43135 0.925925 0.157803
rclavicle -2.08724e-015 -4.37326e-015
rhumerus 68.2871 3.56042 -92.4894
rradius 8.62713
rwrist 54.6191
rhand -18.4492 8.61473
rfingers 7.12502
rthumb 7.83677 -21.22
lclavicle -2.08724e-015 -4.37326e-015
lhumerus 67.0066 0.190779 89.8819
lradius 12.0568
lwrist -66.746
lhand -17.5718 -1.99549
lfingers 7.12502
lthumb 8.68356 27.8059
rfemur -41.1442 -55.1395 -23.8686
rtibia 132.067
rfoot -6.81991 48.888
rtoes -3.69295
lfemur -50.6988 49.9363 17.7924
ltibia 130.873
lfoot -18.5956 -47.1932
ltoes 5.55802
109
root 0.911149 9.7575 -0.857609 80.6573 -88.0276 -102.935
lowerback 53.5772 -3.88889 6.18164
upperback 2.49144 -2.83164 -2.75215
thorax -18.991 -2.04561 -4.39143
lowerneck 6.91177 1.54022 -2.73843
upperneck -3.78683 1.76494 -0.54509
head -2.41271 0.935332 0.224036
rclavicle 6.16232e-015 1.07344e-014
rhumerus 68.4124 3.6388 -92.6018
rradius 8.31421
rwrist 54.5599
rhand -18.4649 8.58437
rfingers 7.12502
rthumb 7.82168 -21.2509
lclavicle 6.16232e-015 1.07344e-014
lhumerus 67.081 0.271539 90.2928
lradius 11.9725
lwrist -67.0734
lhand -17.7971 -1.96944
lfingers 7.12502
lthumb 8.46618 27.8409
rfemur -42.9304 -52.4988 -19.8437
rtibia 130.452
rfoot -6.75357 46.7923
rtoes -3.87563
lfemur -50.9417 47.7872 15.5896
ltibia 129.237
lfoot -18.8174 -45.6108
ltoes 5.58166
110
root 0.907195 9.9618 -0.860373 79.8284 -88.0288 -101.723
lowerback 53.0413 -3.86319 6.15023
upperback 2.49311 -2.82953 -2.74355
thorax -18.9208 -2.03568 -4.38156
lowerneck 6.82135 1.56338 -2.8108
upperneck -3.67818 1.80163 -0.403171
head -2.36281 0.94912 0.281177
rclavicle 2.08724e-015 9.54166e-015
rhumerus 68.4859 3.70365 -92.7565
rradius 8.08907
rwrist 54.5395
rhand -18.385 8.4804
rfingers 7.12502
rthumb 7.89872 -21.352
lclavicle 2.08724e-015 9.54166e-015
lhumerus 67.1399 0.143577 90.0313
lradius 11.9111
lwrist -66.6409
lhand -17.941 -1.83886
lfingers 7.12502
lthumb 8.32725 27.977
rfemur -44.1381 -49.7754 -16.3521
rtibia 128.721
rfoot -6.62469 44.7201
rtoes -3.85461
lfemur -50.919 45.6093 13.5609
ltibia 127.478
lfoot -19.0958 -44.0307
ltoes 5.52878
111
root 0.902703 10.1707 -0.862354 79.1588 -88.0169 -100.684
lowerback 52.5296 -3.84432 6.12764
upperback 2.49717 -2.82786 -2.72363
thorax -18.8464 -2.0267 -4.3617
lowerneck 6.69867 1.59493 -2.92388
upperneck -3.57058 1.84797 -0.239689
head -2.30855 0.967753 0.351921
rclavicle -6.95746e-015 3.18055e-015
rhumerus 68.5143 3.74503 -92.8806
rradius 7.96921
rwrist 54.6346
rhand -18.2953 8.44386
rfingers 7.12502
rthumb 7.98533 -21.3853
lclavicle -6.95746e-015 3.18055e-015
lhumerus 67.224 0.194708 90.2834
lradius 11.8177
lwrist -66.7015
lhand -18.0427 -1.75815
lfingers 7.12502
lthumb 8.22909 28.0616
rfemur -44.8682 -47.1055 -13.3301
rtibia 126.921
rfoot -6.65743 42.7131
rtoes -3.90156
lfemur -50.6946 43.4743 11.7481
ltibia 125.65
lfoot -19.3307 -42.5368
ltoes 5.51833
112
root 0.897247 10.3805 -0.864908 78.2869 -88.0066 -99.4502
lowerback 52.0221 -3.83052 6.12967
upperback 2.48949 -2.82057 -2.72282
thorax -18.7855 -2.01762 -4.37868
lowerneck 6.61488 1.61787 -3.005
upperneck -3.48031 1.8846 -0.0675155
head -2.26711 0.98121 0.419978
rclavicle -3.37934e-015 1.19271e-014
rhumerus 68.4186 3.75765 -93.0208
rradius 7.9555
rwrist 54.794
rhand -18.2409 8.39084
rfingers 7.12502
rthumb 8.03782 -21.4363
lclavicle -3.37934e-015 1.19271e-014
lhumerus 67.2316 0.125324 90.3
lradius 11.7717
lwrist -66.5243
lhand -18.0945 -1.63372
lfingers 7.12502
lthumb 8.17917 28.188
rfemur -45.204 -44.5985 -10.7871
rtibia 125.095
rfoot -6.6796 40.8711
rtoes -3.92151
lfemur -50.2602 41.5041 10.1992
ltibia 123.797
lfoot -19.5535 -41.1809
ltoes 5.57412
113
root 0.890718 10.5884 -0.866973 77.3676 -87.9914 -98.1978
lowerback 51.5316 -3.82451 6.11899
upperback 2.47981 -2.82793 -2.71228
thorax -18.7271 -2.01369 -4.37031
lowerneck 6.54004 1.65448 -3.08355
upperneck -3.38689 1.93825 0.087666
head -2.22655 1.00363 0.481406
rclavicle 1.14301e-014 3.57812e-015
rhumerus 68.3063 3.80831 -93.1759
rradius 7.94232
rwrist 55.025
rhand -18.1939 8.29685
rfingers 7.12502
rthumb 8.08318 -21.5286
lclavicle 1.14301e-014 3.57812e-015
lhumerus 67.2361 0.236834 90.7311
lradius 11.6739
lwrist -66.7814
lhand -18.1867 -1.56073
lfingers 7.12502
lthumb 8.09015 28.2644
rfemur -45.2168 -42.313 -8.64905
rtibia 123.264
rfoot -6.90097 39.1844
rtoes -4.05401
lfemur -49.6493 39.6764 8.88857
ltibia 121.935
lfoot -19.74 -39.9896
ltoes 5.62429
114
root 0.883316 10.7904 -0.869459 76.1966 -87.9944 -96.7078
lowerback 50.9944 -3.79982 6.08378
upperback 2.49421 -2.82772 -2.68785
thorax -18.6265 -2.0042 -4.3395
lowerneck 6.46138 1.67452 -3.17179
upperneck -3.29407 1.96724 0.212289
head -2.18501 1.01482 0.53576
rclavicle 1.17283e-014 1.23246e-014
rhumerus 68.15 3.84585 -93.2886
rradius 7.96975
rwrist 55.2717
rhand -18.2377 8.2403
rfingers 7.12502
rthumb 8.04093 -21.5867
lclavicle 1.17283e-014 1.23246e-014
lhumerus 67.2383 0.28927 90.9919
lradius 11.5904
lwrist -66.8674
lhand -18.1777 -1.4291
lfingers 7.12502
lthumb 8.09884 28.3957
rfemur -44.9891 -40.2833 -6.8881
rtibia 121.446
rfoot -7.07745 37.694
rtoes -4.08407
lfemur -48.9464 38.0086 7.73776
ltibia 120.097
lfoot -19.8954 -38.9443
ltoes 5.78835
